<svg xmlns="http://www.w3.org/2000/svg" width="214" height="214" fill="none" viewBox="0 0 214 214"><path fill="#001534" d="M53.9097 79.32H105.81C107.722 79.32 109.268 77.772 109.268 75.86V23.96C109.268 23.0427 108.903 22.1629 108.255 21.5141C107.607 20.8653 106.727 20.5005 105.81 20.5H102.35L50.4497 72.4V75.858C50.4494 76.3125 50.5387 76.7627 50.7125 77.1827C50.8863 77.6027 51.1411 77.9844 51.4624 78.3059C51.7837 78.6274 52.1652 78.8824 52.5852 79.0564C53.0051 79.2304 53.4552 79.32 53.9097 79.32Z"/><path fill="#001534" d="M168.09 20.5H132.642C131.03 20.5 129.69 21.606 129.304 23.096H129.182V96.198H129.178L129.182 96.244C129.182 97.1617 128.817 98.0417 128.168 98.6906C127.519 99.3395 126.639 99.704 125.722 99.704L125.704 99.702V99.704H53.9097C52.1637 99.704 50.7377 100.998 50.4977 102.678H50.4497V190.04C50.4497 191.952 51.9977 193.5 53.9097 193.5H168.09C169.007 193.5 169.887 193.135 170.536 192.487C171.185 191.838 171.55 190.958 171.55 190.04V23.96C171.55 23.0424 171.185 22.1623 170.536 21.5134C169.887 20.8645 169.007 20.5 168.09 20.5Z"/><path stroke="#FF5470" stroke-linecap="round" stroke-linejoin="round" stroke-width="10" d="M5 208.5L208.5 5"/><path stroke="#FF5470" stroke-linecap="round" stroke-linejoin="round" stroke-width="10" d="M5 4.99999L208.5 208.5"/></svg>