<svg xmlns="http://www.w3.org/2000/svg" width="120" height="100" fill="none" viewBox="0 0 120 100"><circle cx="116" cy="4" r="4" fill="#FF5470"/><circle cx="88" cy="4" r="4" fill="#FF5470"/><circle cx="60" cy="4" r="4" fill="#FF5470"/><circle cx="32" cy="4" r="4" fill="#FF5470"/><circle cx="4" cy="4" r="4" fill="#FF5470"/><circle cx="116" cy="27" r="4" fill="#FF5470"/><circle cx="88" cy="27" r="4" fill="#FF5470"/><circle cx="60" cy="27" r="4" fill="#FF5470"/><circle cx="32" cy="27" r="4" fill="#FF5470"/><circle cx="4" cy="27" r="4" fill="#FF5470"/><circle cx="116" cy="50" r="4" fill="#FF5470"/><circle cx="88" cy="50" r="4" fill="#FF5470"/><circle cx="60" cy="50" r="4" fill="#FF5470"/><circle cx="32" cy="50" r="4" fill="#FF5470"/><circle cx="4" cy="50" r="4" fill="#FF5470"/><circle cx="116" cy="73" r="4" fill="#FF5470"/><circle cx="88" cy="73" r="4" fill="#FF5470"/><circle cx="60" cy="73" r="4" fill="#FF5470"/><circle cx="32" cy="73" r="4" fill="#FF5470"/><circle cx="4" cy="73" r="4" fill="#FF5470"/><circle cx="116" cy="96" r="4" fill="#FF5470"/><circle cx="88" cy="96" r="4" fill="#FF5470"/><circle cx="60" cy="96" r="4" fill="#FF5470"/><circle cx="32" cy="96" r="4" fill="#FF5470"/><circle cx="4" cy="96" r="4" fill="#FF5470"/></svg>