<svg xmlns="http://www.w3.org/2000/svg" width="40" height="40" fill="none" viewBox="0 0 40 40"><path stroke="#B7C9E4" stroke-width="1.5" d="M29.567 3.42949L39.134 20L29.567 36.5705L10.433 36.5705L0.866031 20L10.433 3.42949L29.567 3.42949Z"/><path stroke="#B7C9E4" stroke-width="1.5" d="M27.567 6.89359L35.134 20L27.567 33.1064L12.433 33.1064L4.86603 20L12.433 6.89359L27.567 6.89359Z"/><path fill="#B7C9E4" d="M14.9327 15.4149V12.0064H22.3993C24.266 11.919 27.9993 12.6881 27.9993 16.4637C27.9993 20.2392 25.3327 21.1831 23.9993 21.1831H18.3993V28H14.666V17.7746H23.7327C23.9993 17.6872 24.5327 17.2502 24.5327 16.4637C24.5327 15.6771 23.8216 15.4149 23.466 15.4149H14.9327Z"/></svg>