<svg xmlns="http://www.w3.org/2000/svg" width="57" height="29" fill="none" viewBox="0 0 57 29"><path fill="#fff" d="M0.376514 4.91087V0.00924299H10.9189C13.5545 -0.11644 18.8257 0.989568 18.8257 6.41906C18.8257 11.8486 15.0606 13.2059 13.178 13.2059H5.27119V23.0092H0V8.3043H12.8015C13.178 8.17862 13.931 7.55021 13.931 6.41907C13.931 5.28792 12.927 4.91087 12.425 4.91087H0.376514Z"/><path fill="#fff" d="M12.2892 15.165H9.41309V28.4999H12.2892V22.7476H18.303V28.4999H21.1791V15.165H18.303V19.8715H12.2892V15.165Z"/><path fill="#fff" d="M26.147 15.165H23.2709V28.4999H26.147V15.165Z"/><path fill="#fff" d="M31.6379 15.165H27.9773L32.9452 24.0549L34.7755 20.6559L31.6379 15.165Z"/><path fill="#fff" d="M43.4039 15.165H39.7434L33.9911 25.8852L35.2984 28.4999H36.0828L43.4039 15.165Z"/><path fill="#fff" d="M44.9727 18.0412V15.165H57.0002V18.0412H44.9727Z"/><path fill="#fff" d="M55.6929 19.8715H44.9727V28.4999H57.0002V25.6238H47.8489V22.7476H55.6929V19.8715Z"/></svg>