<svg xmlns="http://www.w3.org/2000/svg" width="40" height="20" fill="none" viewBox="0 0 40 20"><path fill="#00214D" d="M0.26422 3.44622V0.00648631H7.66238C9.51193 -0.0817121 13.211 0.694434 13.211 4.5046C13.211 8.31477 10.5688 9.26732 9.24771 9.26732H3.69908V16.1468H0V5.82758H8.98349C9.24771 5.73938 9.77615 5.2984 9.77615 4.50461C9.77615 3.71082 9.07156 3.44622 8.71927 3.44622H0.26422Z"/><path fill="#00214D" d="M8.62382 10.6422H6.60547V20H8.62382V15.9633H12.844V20H14.8624V10.6422H12.844V13.945H8.62382V10.6422Z"/><path fill="#00214D" d="M18.3486 10.6422H16.3302V20H18.3486V10.6422Z"/><path fill="#00214D" d="M22.2018 10.6422H19.633L23.1192 16.8807L24.4036 14.4954L22.2018 10.6422Z"/><path fill="#00214D" d="M30.4587 10.6422H27.8899L23.8532 18.1651L24.7706 20H25.3211L30.4587 10.6422Z"/><path fill="#00214D" d="M31.5596 12.6606V10.6422H40V12.6606H31.5596Z"/><path fill="#00214D" d="M39.0825 13.945H31.5596V20H40V17.9817H33.5779V15.9633H39.0825V13.945Z"/></svg>