<svg xmlns="http://www.w3.org/2000/svg" width="101" height="88" fill="none" viewBox="0 0 101 88"><path stroke="#00214D" stroke-dasharray="5 5" d="M117 22.4954C98.1101 -10.6374 69.2165 -0.136873 62.1927 18.4175C55.1688 36.9719 65.1193 51.4654 70.9725 56.3929C72.6575 58.0071 78.7358 61.2919 80.5505 56.3929C83.4771 48.492 67.2477 40.5911 53.1468 48.492C41.8661 54.8127 33.0153 60.131 30 62"/><path fill="#00214D" d="M26.4151 56.1125L23.2228 55.745L21.8182 67.9458L34.5877 69.4158L34.9388 66.3656L25.3617 65.2631L26.4151 56.1125Z"/><path fill="#00214D" d="M16.1358 61.1104L19.3282 61.4779L18.2748 70.6285L27.8518 71.731L27.5007 74.7811L14.7313 73.3112L16.1358 61.1104Z"/></svg>