<svg xmlns="http://www.w3.org/2000/svg" width="148" height="149" fill="none" viewBox="0 0 148 149"><path fill="#00214D" fill-rule="evenodd" d="M139.052 1.51405C137.421 1.55368 135.806 1.67683 134.212 1.879L134.086 0.88694C135.714 0.680548 137.362 0.554812 139.028 0.514343L139.052 1.51405ZM148.72 2.26273C147.107 1.97265 145.502 1.76768 143.909 1.6438L143.986 0.646808C145.613 0.773278 147.251 0.982504 148.897 1.27852L148.72 2.26273ZM129.436 2.73145C127.851 3.09713 126.293 3.5407 124.763 4.05739L124.443 3.11C126.003 2.5829 127.594 2.13028 129.211 1.75707L129.436 2.73145ZM158.052 4.89413C156.514 4.29948 154.978 3.78738 153.446 3.35439L153.718 2.3921C155.28 2.83363 156.846 3.35564 158.412 3.96145L158.052 4.89413ZM120.243 5.83383C118.763 6.49925 117.318 7.23432 115.912 8.03409L115.418 7.16489C116.851 6.34972 118.324 5.60033 119.832 4.92181L120.243 5.83383ZM166.774 9.17915C165.353 8.32663 163.929 7.55073 162.503 6.8487L162.945 5.95156C164.396 6.66598 165.844 7.45513 167.289 8.32163L166.774 9.17915ZM111.804 10.6307C110.475 11.5598 109.189 12.5493 107.952 13.594L107.307 12.8299C108.567 11.7657 109.877 10.7577 111.231 9.81099L111.804 10.6307ZM174.716 14.8015C173.433 13.7476 172.143 12.7624 170.848 11.8439L171.427 11.0283C172.741 11.9607 174.05 12.9602 175.351 14.0288L174.716 14.8015ZM104.385 16.8947C103.245 18.0495 102.158 19.2547 101.13 20.5053L100.358 19.8702C101.405 18.5962 102.512 17.3685 103.673 16.1922L104.385 16.8947ZM181.83 21.4465C180.686 20.242 179.534 19.0983 178.375 18.0137L179.058 17.2836C180.232 18.3819 181.398 19.5396 182.555 20.7579L181.83 21.4465ZM98.2181 24.3965C97.307 25.7384 96.4589 27.1208 95.6785 28.5385L94.8025 28.0562C95.598 26.611 96.4624 25.2021 97.3908 23.8348L98.2181 24.3965ZM188.16 28.8674C187.145 27.549 186.12 26.2842 185.087 25.0718L185.849 24.4233C186.892 25.6486 187.927 26.9262 188.952 28.2573L188.16 28.8674ZM193.781 36.8826C192.883 35.4804 191.975 34.1255 191.059 32.8169L191.878 32.2433C192.802 33.5634 193.718 34.9298 194.623 36.3434L193.781 36.8826ZM93.5412 32.9011C93.2202 33.6447 92.9174 34.3959 92.6334 35.1539C92.3356 35.9487 92.0537 36.7395 91.7873 37.5263L90.8401 37.2056C91.1099 36.4086 91.3954 35.6077 91.6969 34.803C91.9868 34.0296 92.2957 33.2633 92.623 32.5048L93.5412 32.9011ZM197.565 43.1795C197.153 42.4503 196.739 41.7321 196.323 41.0246L197.185 40.5175C197.604 41.2301 198.021 41.9536 198.435 42.688L197.565 43.1795ZM90.3385 42.3208C89.9 43.9701 89.5284 45.5999 89.2194 47.209L88.2374 47.0205C88.5508 45.3883 88.9276 43.7357 89.372 42.0638L90.3385 42.3208ZM88.454 52.1578C88.2559 53.8468 88.1254 55.5106 88.0572 57.1477L87.0581 57.1061C87.1273 55.4441 87.2598 53.7554 87.4608 52.0414L88.454 52.1578ZM88.0398 62.1596C88.0991 63.8568 88.2236 65.5218 88.4068 67.1528L87.413 67.2644C87.227 65.6084 87.1006 63.9178 87.0404 62.1945L88.0398 62.1596ZM89.1559 72.1017C89.4741 73.7694 89.8514 75.3962 90.2799 76.9799L89.3147 77.2411C88.8797 75.6336 88.4966 73.9822 88.1736 72.2891L89.1559 72.1017ZM91.7679 81.7629C92.3341 83.3699 92.9497 84.9242 93.6046 86.4233L92.6882 86.8237C92.0238 85.3029 91.3992 83.7258 90.8247 82.0952L91.7679 81.7629ZM104.498 88.1389C102.972 87.9408 101.402 87.818 99.7981 87.7782L99.8229 86.7785C101.461 86.8192 103.066 86.9446 104.627 87.1472L104.498 88.1389ZM95.0831 87.9002C93.5412 88.0181 91.9787 88.2138 90.4039 88.4935L90.229 87.5089C91.8369 87.2234 93.4323 87.0235 95.0069 86.9032L95.0831 87.9002ZM113.627 90.3806C112.203 89.8447 110.698 89.3802 109.128 88.9975L109.364 88.0259C110.973 88.4179 112.516 88.8941 113.979 89.4447L113.627 90.3806ZM85.8096 89.5456C84.3211 89.9644 82.8286 90.4618 81.3386 91.0427L80.9753 90.1111C82.4959 89.5182 84.0193 89.0105 85.5387 88.583L85.8096 89.5456ZM95.7763 90.9416C96.5769 92.4641 97.4123 93.9158 98.2687 95.293L97.4194 95.821C96.5507 94.4239 95.7033 92.9513 94.8912 91.407L95.7763 90.9416ZM121.801 94.8997C120.642 93.9739 119.336 93.1116 117.902 92.3291L118.382 91.4514C119.861 92.2593 121.216 93.1533 122.425 94.1183L121.801 94.8997ZM77.0284 92.9673C76.3313 93.3195 75.6361 93.6914 74.9435 94.0834C74.1853 94.5126 73.4327 94.9395 72.6861 95.3638L72.192 94.4943C72.9391 94.0698 73.6922 93.6427 74.4509 93.2132C75.1572 92.8134 75.8663 92.4341 76.5775 92.0748L77.0284 92.9673ZM68.1781 97.9354C66.6489 98.8111 65.1492 99.6734 63.6814 100.52L63.1816 99.6541C64.6503 98.8067 66.151 97.9439 67.6812 97.0676L68.1781 97.9354ZM127.265 102.198C126.815 100.814 126.076 99.4653 125.081 98.1804L125.871 97.5679C126.927 98.9308 127.725 100.381 128.216 101.888L127.265 102.198ZM101.068 99.4469C102.103 100.865 103.146 102.176 104.176 103.374L103.418 104.026C102.371 102.808 101.311 101.476 100.26 100.036L101.068 99.4469ZM59.1925 103.12C57.656 104.014 56.1615 104.886 54.7126 105.735L54.2071 104.872C55.6569 104.023 57.1524 103.15 58.6898 102.256L59.1925 103.12ZM127.145 108.889C127.416 108.15 127.598 107.413 127.695 106.681L128.687 106.813C128.579 107.619 128.38 108.427 128.084 109.234C127.715 110.241 127.254 111.089 126.714 111.794L125.92 111.186C126.391 110.571 126.806 109.814 127.145 108.889ZM107.604 107.013C108.236 107.621 108.851 108.177 109.443 108.681L109.455 108.691L109.467 108.702C109.965 109.184 110.685 109.759 111.564 110.343L111.01 111.176C110.101 110.571 109.335 109.964 108.783 109.432C108.179 108.917 107.552 108.351 106.911 107.734L107.604 107.013ZM50.239 108.366C48.6841 109.284 47.1948 110.167 45.7765 111.012L45.265 110.152C46.6843 109.307 48.1746 108.424 49.7305 107.505L50.239 108.366ZM116.37 112.766C118.115 113.382 119.921 113.723 121.567 113.557L121.668 114.552C119.825 114.738 117.864 114.354 116.037 113.709L116.37 112.766ZM41.3283 113.672C39.7163 114.64 38.2315 115.537 36.8854 116.355L36.3664 115.5C37.7138 114.682 39.2 113.784 40.8133 112.814L41.3283 113.672ZM32.4596 119.061C31.609 119.586 30.8751 120.042 30.2654 120.424L29.7346 119.576C30.3466 119.193 31.0825 118.736 31.9346 118.21L32.4596 119.061Z" clip-rule="evenodd"/><path fill="#00214D" d="M25.3364 115.496L22.2241 115.137L20.7805 127.664L33.2297 129.099L33.5906 125.967L24.2537 124.891L25.3364 115.496Z"/><path fill="#00214D" d="M15.2777 120.683L18.39 121.042L17.3073 130.437L26.6442 131.513L26.2833 134.645L13.8341 133.21L15.2777 120.683Z"/></svg>